HIERARCHY
ROOT SpineBase
{
  OFFSET 0.000000 0.000000 0.000000
  CHANNELS 6 Xposition Yposition Zposition Zrotation Xrotation Yrotation
  JOINT SpineMid
  {
    OFFSET 0.000000 27.884168 0.000000
    CHANNELS 3 Zrotation Xrotation Yrotation
    JOINT SpineShoulder
    {
      OFFSET -0.132121 20.826151 -0.735028
      CHANNELS 3 Zrotation Xrotation Yrotation
      JOINT Neck
      {
        OFFSET -0.084400 6.937061 -0.566585
        CHANNELS 3 Zrotation Xrotation Yrotation
        JOINT Head
        {
          OFFSET -0.614718 14.384682 -1.553391
          CHANNELS 3 Zrotation Xrotation Yrotation
          End Site
          {
            OFFSET 0 0 0
          }
        }
      }
      JOINT ShoulderLeft
      {
        OFFSET -17.444218 -2.461166 4.736982
        CHANNELS 3 Zrotation Xrotation Yrotation
        JOINT ElbowLeft
        {
          OFFSET -6.620412 -18.821046 4.098611
          CHANNELS 3 Zrotation Xrotation Yrotation
          JOINT WristLeft
          {
            OFFSET 16.765399 -11.385156 -2.045446
            CHANNELS 3 Zrotation Xrotation Yrotation
            JOINT HandLeft
            {
              OFFSET 5.612518 -3.887157 -0.314305
              CHANNELS 3 Zrotation Xrotation Yrotation
              JOINT HandTipLeft
              {
                OFFSET -0.562881 -4.361307 0.147328
                CHANNELS 3 Zrotation Xrotation Yrotation
                End Site
                {
                  OFFSET 0 0 0
                }
              }
              JOINT ThumbLeft
              {
                OFFSET 1.285053 2.109695 -3.382866
                CHANNELS 3 Zrotation Xrotation Yrotation
                End Site
                {
                  OFFSET 0 0 0
                }
              }
            }
          }
        }
      }
      JOINT ShoulderRight
      {
        OFFSET 15.060687 -3.233599 -7.925023
        CHANNELS 3 Zrotation Xrotation Yrotation
        JOINT ElbowRight
        {
          OFFSET 5.011645 -22.721425 -1.564495
          CHANNELS 3 Zrotation Xrotation Yrotation
          JOINT WristRight
          {
            OFFSET -2.566649 -21.141531 -6.431765
            CHANNELS 3 Zrotation Xrotation Yrotation
            JOINT HandRight
            {
              OFFSET -1.322861 -6.352084 -0.718278
              CHANNELS 3 Zrotation Xrotation Yrotation
              JOINT HandTipRight
              {
                OFFSET -0.183701 -7.884260 -1.287786
                CHANNELS 3 Zrotation Xrotation Yrotation
                End Site
                {
                  OFFSET 0 0 0
                }
              }
              JOINT ThumbRight
              {
                OFFSET -3.952080 -0.187528 -1.911136
                CHANNELS 3 Zrotation Xrotation Yrotation
                End Site
                {
                  OFFSET 0 0 0
                }
              }
            }
          }
        }
      }
    }
  }
  JOINT HipLeft
  {
    OFFSET -7.627017 0.976831 -1.650323
    CHANNELS 3 Zrotation Xrotation Yrotation
    JOINT KneeLeft
    {
      OFFSET 0.797085 -36.083233 11.668893
      CHANNELS 3 Zrotation Xrotation Yrotation
      JOINT AnkleLeft
      {
        OFFSET -3.848351 -42.195748 8.089438
        CHANNELS 3 Zrotation Xrotation Yrotation
        JOINT FootLeft
        {
          OFFSET 4.503670 -6.895895 -0.095291
          CHANNELS 3 Zrotation Xrotation Yrotation
          End Site
          {
            OFFSET 0 0 0
          }
        }
      }
    }
  }
  JOINT HipRight
  {
    OFFSET 6.722525 1.191323 -4.942297
    CHANNELS 3 Zrotation Xrotation Yrotation
    JOINT KneeRight
    {
      OFFSET 4.491555 -33.196987 1.951559
      CHANNELS 3 Zrotation Xrotation Yrotation
      JOINT AnkleRight
      {
        OFFSET 0.629034 -42.927118 12.609996
        CHANNELS 3 Zrotation Xrotation Yrotation
        JOINT FootRight
        {
          OFFSET -1.340636 -6.123944 -9.827767
          CHANNELS 3 Zrotation Xrotation Yrotation
          End Site
          {
            OFFSET 0 0 0
          }
        }
      }
    }
  }
}
MOTION
Frames: 9
Frame Time: 0.033333
49.267471 84.773603 367.585386 -0.000000 0.000000 12.920824 -0.000000 0.000000 -12.920824 -0.000000 0.000000 0.000000 -0.000000 0.000000 0.000000 0.000000 0.000000 0.000000 -0.000000 0.000000 0.000000 -0.000000 0.000000 0.000000 -0.000000 0.000000 0.000000 -0.000000 0.000000 0.000000 0.000000 0.000000 0.000000 0.000000 0.000000 0.000000 -0.000000 0.000000 0.000000 -0.000000 0.000000 0.000000 -0.000000 0.000000 0.000000 -0.000000 0.000000 0.000000 0.000000 0.000000 0.000000 0.000000 0.000000 0.000000 -0.000000 0.000000 -12.920824 -0.000000 0.000000 0.000000 -0.000000 0.000000 0.000000 0.000000 0.000000 0.000000 -0.000000 0.000000 -12.920824 -0.000000 0.000000 0.000000 -0.000000 0.000000 0.000000 0.000000 0.000000 0.000000
49.256995 84.771814 367.494924 -0.177233 -0.035619 13.271192 0.180676 -0.006017 -13.271238 -0.000000 0.000000 0.000000 -0.000000 0.000000 0.000000 0.000000 0.000000 0.000000 1.384382 1.735721 -0.332590 -0.369125 -1.530873 0.441793 -0.001507 -0.044496 0.029438 -1.005519 -0.159823 -0.152812 0.000000 0.000000 0.000000 0.000000 0.000000 0.000000 -1.543607 0.272280 0.170495 1.153796 -1.738577 0.125744 1.291871 -2.214790 0.369579 -1.882695 -0.368573 -0.353953 0.000000 0.000000 0.000000 0.000000 0.000000 0.000000 -0.678202 -0.386113 -13.528451 1.039784 1.337255 0.232750 -6.524047 13.106982 10.196707 0.000000 0.000000 0.000000 0.602954 0.924017 -13.127378 -0.200058 -1.001623 -0.148991 -1.826505 0.264950 2.856500 0.000000 0.000000 0.000000
49.284699 84.764269 367.411423 -0.285691 -0.070282 13.474571 0.294204 0.001777 -13.474751 -0.000000 0.000000 0.000000 0.782621 0.245817 0.093336 0.000000 0.000000 0.000000 2.613873 3.131409 -0.612464 -0.852081 -2.784042 0.768154 -0.002226 -0.076193 0.051333 -1.732368 -0.272242 -0.262900 0.000000 0.000000 0.000000 0.000000 0.000000 0.000000 -2.549350 0.340739 0.259524 1.946597 -2.715064 0.209411 2.165305 -3.973322 0.685953 -3.667985 -0.680149 -0.449644 0.000000 0.000000 0.000000 0.000000 0.000000 0.000000 -1.134882 -0.629365 -13.904337 1.653709 2.237329 0.364957 -15.826824 24.763655 22.444059 0.000000 0.000000 0.000000 0.872810 1.613771 -13.241407 -0.355293 -2.576694 -0.309303 -3.308760 1.602611 5.438379 0.000000 0.000000 0.000000
49.350585 84.750969 367.334883 -0.325184 -0.103962 13.529890 0.340481 0.024998 -13.530259 -0.000000 0.000000 0.000000 1.046875 0.312465 0.123541 0.000000 0.000000 0.000000 3.668774 4.171071 -0.817968 -1.438408 -3.743989 0.961170 -0.002396 -0.095466 0.065168 -2.180068 -0.338865 -0.328530 0.000000 0.000000 0.000000 0.000000 0.000000 0.000000 -3.057148 0.220833 0.266687 2.437340 -2.878909 0.237843 2.528382 -5.057939 0.911487 -5.246911 -1.044921 -0.320765 0.000000 0.000000 0.000000 0.000000 0.000000 0.000000 -1.370151 -0.740163 -14.044688 1.850563 2.696320 0.410543 -25.324542 32.089254 33.920136 0.000000 0.000000 0.000000 0.793353 2.060851 -13.258151 -0.082590 -3.146971 -0.330608 -4.780259 2.488014 7.489432 0.000000 0.000000 0.000000
49.454652 84.731912 367.265305 -0.295615 -0.136635 13.437174 0.319274 0.064198 -13.437705 -0.000000 0.000000 0.000000 1.225758 0.341195 0.143285 0.000000 0.000000 0.000000 4.534096 4.846268 -0.931326 -2.120985 -4.400521 1.011203 -0.002148 -0.102556 0.070642 -2.348576 -0.360718 -0.348704 0.000000 0.000000 0.000000 0.000000 0.000000 0.000000 -3.095615 -0.078790 0.194865 2.664378 -2.198016 0.199577 2.310987 -5.302352 1.007200 -6.542385 -1.564620 -0.020654 0.000000 0.000000 0.000000 0.000000 0.000000 0.000000 -1.384369 -0.723209 -13.948358 1.635643 2.714187 0.374838 -32.312301 35.654844 42.132472 0.000000 0.000000 0.000000 0.355782 2.256238 -13.176227 0.496683 -3.232423 -0.257064 -6.090724 3.475615 9.017091 0.000000 0.000000 0.000000
49.596901 84.707100 367.202688 -0.196987 -0.168278 13.197556 0.230204 0.118859 -13.198084 -0.000000 0.000000 0.000000 1.319131 0.331929 0.152794 0.000000 0.000000 0.000000 5.199867 5.154298 -0.939541 -2.895109 -4.747406 0.916541 -0.001498 -0.097554 0.067648 -2.237953 -0.338167 -0.323082 0.000000 0.000000 0.000000 0.000000 0.000000 0.000000 -2.682746 -0.555544 0.049482 2.646188 -0.662482 0.083385 1.473353 -4.603800 0.940226 -7.507597 -2.305123 0.395838 0.000000 0.000000 0.000000 0.000000 0.000000 0.000000 -1.177823 -0.577411 -13.616640 1.010997 2.294198 0.254788 -35.872974 37.065374 46.428254 0.000000 0.000000 0.000000 -0.440687 2.190216 -12.998151 1.382335 -2.827812 -0.093872 -7.218587 4.579090 9.988534 0.000000 0.000000 0.000000
49.788805 84.684381 367.132608 -0.047415 -0.176391 13.061233 0.086051 0.161112 -13.061427 -0.000000 0.000000 0.000000 1.408068 0.256165 0.159818 0.000000 0.000000 0.000000 5.972126 5.189179 -0.818823 -4.558017 -4.993058 0.512314 0.001190 -0.058913 0.042257 -1.362177 -0.182245 -0.157886 0.000000 0.000000 0.000000 0.000000 0.000000 0.000000 -2.462490 -1.405754 -0.171673 2.459015 1.411828 0.111156 0.696475 -3.165808 0.602597 -6.294796 -5.020289 0.456718 0.000000 0.000000 0.000000 0.000000 0.000000 0.000000 0.086051 0.161112 -13.061427 -0.966764 0.552040 -0.231070 -29.257023 38.681973 43.758816 0.000000 0.000000 0.000000 -2.016501 2.400409 -12.933202 3.499457 -2.565213 0.257517 -8.352909 5.966848 10.092760 0.000000 0.000000 0.000000
50.036998 84.636665 367.077579 0.215142 -0.197947 12.646431 -0.166587 0.240245 -12.645711 -0.000000 0.000000 0.000000 1.345625 0.153882 0.150035 0.000000 0.000000 0.000000 6.692205 4.714039 -0.490372 -6.674582 -4.739015 -0.061901 -0.000000 0.000000 0.000000 -0.000000 0.000000 0.000000 0.000000 0.000000 0.000000 0.000000 0.000000 0.000000 -1.986539 -2.201425 -0.389001 1.985762 3.441945 0.157545 -2.363344 -2.060427 0.523294 -6.513478 -3.049185 0.916837 0.000000 0.000000 0.000000 0.000000 0.000000 0.000000 -0.166587 0.240245 -12.645711 -1.382873 -0.159657 -0.252147 -34.217305 34.965876 43.008362 0.000000 0.000000 0.000000 -3.701489 2.051559 -12.666805 5.296111 -1.498264 0.573747 -9.107526 9.391710 9.351790 0.000000 0.000000 0.000000
50.301381 84.570210 367.045618 0.546193 -0.231682 11.894125 -0.486724 0.339269 -11.891580 -0.000000 0.000000 0.000000 1.116196 -0.000979 0.120458 0.000000 0.000000 0.000000 7.049770 3.716086 0.000567 -8.180462 -3.977502 -0.776508 0.009571 0.052367 -0.026134 1.099947 0.252076 0.268827 0.000000 0.000000 0.000000 0.000000 0.000000 0.000000 0.252692 -3.189770 -0.715124 0.866185 8.356196 -0.370157 -5.215788 0.212888 0.082080 -6.434058 -3.121056 1.733393 0.000000 0.000000 0.000000 0.000000 0.000000 0.000000 0.360117 0.607924 -11.638568 -2.782982 -1.200828 -0.604054 -25.731058 31.226047 33.596885 0.000000 0.000000 0.000000 -4.573858 1.711176 -12.003164 5.714395 -0.714966 0.634594 -7.273337 5.370757 7.533974 0.000000 0.000000 0.000000
